<?xml version="1.0" encoding="UTF-8" standalone="no"?>
<svg width="125px" height="38px" viewBox="0 0 125 38" version="1.1" xmlns="http://www.w3.org/2000/svg" xmlns:xlink="http://www.w3.org/1999/xlink">
    <!-- Generator: Sketch 39 (31667) - http://www.bohemiancoding.com/sketch -->
    <title>Group</title>
    <desc>Created with Sketch.</desc>
    <defs></defs>
    <g id="Page-1" stroke="none" stroke-width="1" fill="none" fill-rule="evenodd">
        <g id="Home" transform="translate(-28.000000, -14.000000)">
            <g id="Group" transform="translate(30.000000, 16.000000)">
                <path d="M55.9160156,11.328125 L50.5957031,11.328125 L50.5957031,26 L47.6542969,26 L47.6542969,11.328125 L42.3808594,11.328125 L42.3808594,8.9375 L55.9160156,8.9375 L55.9160156,11.328125 Z M60.9082031,26 L58.0605469,26 L58.0605469,13.3203125 L60.9082031,13.3203125 L60.9082031,26 Z M57.8847656,10.0273438 C57.8847656,9.58984156 58.0234361,9.22656395 58.3007812,8.9375 C58.5781264,8.64843605 58.9746068,8.50390625 59.4902344,8.50390625 C60.005862,8.50390625 60.4042955,8.64843605 60.6855469,8.9375 C60.9667983,9.22656395 61.1074219,9.58984156 61.1074219,10.0273438 C61.1074219,10.4570334 60.9667983,10.8144517 60.6855469,11.0996094 C60.4042955,11.3847671 60.005862,11.5273438 59.4902344,11.5273438 C58.9746068,11.5273438 58.5781264,11.3847671 58.3007812,11.0996094 C58.0234361,10.8144517 57.8847656,10.4570334 57.8847656,10.0273438 L57.8847656,10.0273438 Z M65.0097656,26 L65.0097656,15.4296875 L63.0761719,15.4296875 L63.0761719,13.3203125 L65.0097656,13.3203125 L65.0097656,12.1601562 C65.0097656,10.7538992 65.4003867,9.66797258 66.1816406,8.90234375 C66.9628945,8.13671492 68.0566336,7.75390625 69.4628906,7.75390625 C69.9628931,7.75390625 70.4941378,7.82421805 71.0566406,7.96484375 L70.9863281,10.1914062 C70.6738266,10.1289059 70.3105489,10.0976562 69.8964844,10.0976562 C68.5371026,10.0976562 67.8574219,10.796868 67.8574219,12.1953125 L67.8574219,13.3203125 L70.4355469,13.3203125 L70.4355469,15.4296875 L67.8574219,15.4296875 L67.8574219,26 L65.0097656,26 Z M80.0917969,26 C79.9667963,25.7578113 79.8574223,25.363284 79.7636719,24.8164062 C78.8574173,25.7617235 77.7480534,26.234375 76.4355469,26.234375 C75.162103,26.234375 74.1230509,25.8710974 73.3183594,25.1445312 C72.5136679,24.4179651 72.1113281,23.5195366 72.1113281,22.4492188 C72.1113281,21.0976495 72.6132762,20.0605505 73.6171875,19.3378906 C74.6210988,18.6152308 76.0566313,18.2539062 77.9238281,18.2539062 L79.6699219,18.2539062 L79.6699219,17.421875 C79.6699219,16.7656217 79.48633,16.2402363 79.1191406,15.8457031 C78.7519513,15.4511699 78.1933631,15.2539062 77.4433594,15.2539062 C76.7949186,15.2539062 76.2636739,15.416014 75.8496094,15.7402344 C75.4355448,16.0644547 75.2285156,16.47656 75.2285156,16.9765625 L72.3808594,16.9765625 C72.3808594,16.2812465 72.6113258,15.6308624 73.0722656,15.0253906 C73.5332054,14.4199188 74.1601523,13.9453142 74.953125,13.6015625 C75.7460977,13.2578108 76.6308545,13.0859375 77.6074219,13.0859375 C79.0918043,13.0859375 80.2753862,13.4589806 81.1582031,14.2050781 C82.04102,14.9511756 82.4941405,15.9999932 82.5175781,17.3515625 L82.5175781,23.0703125 C82.5175781,24.2109432 82.6777328,25.1210904 82.9980469,25.8007812 L82.9980469,26 L80.0917969,26 Z M76.9628906,23.9492188 C77.5253934,23.9492188 78.054685,23.8125014 78.5507812,23.5390625 C79.0468775,23.2656236 79.4199206,22.8984398 79.6699219,22.4375 L79.6699219,20.046875 L78.1347656,20.046875 C77.0800729,20.046875 76.287112,20.2304669 75.7558594,20.5976562 C75.2246067,20.9648456 74.9589844,21.4843716 74.9589844,22.15625 C74.9589844,22.7031277 75.1406232,23.1386703 75.5039062,23.4628906 C75.8671893,23.787111 76.3535126,23.9492188 76.9628906,23.9492188 L76.9628906,23.9492188 Z M88.1425781,13.3203125 L88.2246094,14.7851562 C89.1621141,13.6523381 90.3925705,13.0859375 91.9160156,13.0859375 C94.5566538,13.0859375 95.9003904,14.5976411 95.9472656,17.6210938 L95.9472656,26 L93.0996094,26 L93.0996094,17.7851562 C93.0996094,16.9804647 92.925783,16.3847676 92.578125,15.9980469 C92.230467,15.6113262 91.6621133,15.4179688 90.8730469,15.4179688 C89.7246036,15.4179688 88.8691434,15.9374948 88.3066406,16.9765625 L88.3066406,26 L85.4589844,26 L85.4589844,13.3203125 L88.1425781,13.3203125 Z M104.431641,26.234375 C102.626944,26.234375 101.164068,25.6660213 100.042969,24.5292969 C98.9218694,23.3925724 98.3613281,21.8789157 98.3613281,19.9882812 L98.3613281,19.6367188 C98.3613281,18.3710874 98.6054663,17.2402394 99.09375,16.2441406 C99.5820337,15.2480419 100.267574,14.472659 101.150391,13.9179688 C102.033208,13.3632785 103.017573,13.0859375 104.103516,13.0859375 C105.830087,13.0859375 107.164058,13.6367132 108.105469,14.7382812 C109.04688,15.8398493 109.517578,17.3984274 109.517578,19.4140625 L109.517578,20.5625 L101.232422,20.5625 C101.31836,21.6093802 101.667966,22.437497 102.28125,23.046875 C102.894534,23.656253 103.666011,23.9609375 104.595703,23.9609375 C105.900397,23.9609375 106.962887,23.433599 107.783203,22.3789062 L109.318359,23.84375 C108.810544,24.6015663 108.132817,25.189451 107.285156,25.6074219 C106.437496,26.0253927 105.486333,26.234375 104.431641,26.234375 L104.431641,26.234375 Z M104.091797,15.3710938 C103.310543,15.3710938 102.67969,15.6445285 102.199219,16.1914062 C101.718748,16.738284 101.41211,17.4999951 101.279297,18.4765625 L106.705078,18.4765625 L106.705078,18.265625 C106.642578,17.3124952 106.388674,16.5917993 105.943359,16.1035156 C105.498045,15.6152319 104.880863,15.3710938 104.091797,15.3710938 L104.091797,15.3710938 Z M117.310547,26.234375 C115.50585,26.234375 114.042974,25.6660213 112.921875,24.5292969 C111.800776,23.3925724 111.240234,21.8789157 111.240234,19.9882812 L111.240234,19.6367188 C111.240234,18.3710874 111.484373,17.2402394 111.972656,16.2441406 C112.46094,15.2480419 113.14648,14.472659 114.029297,13.9179688 C114.912114,13.3632785 115.896479,13.0859375 116.982422,13.0859375 C118.708993,13.0859375 120.042964,13.6367132 120.984375,14.7382812 C121.925786,15.8398493 122.396484,17.3984274 122.396484,19.4140625 L122.396484,20.5625 L114.111328,20.5625 C114.197266,21.6093802 114.546872,22.437497 115.160156,23.046875 C115.773441,23.656253 116.544917,23.9609375 117.474609,23.9609375 C118.779303,23.9609375 119.841793,23.433599 120.662109,22.3789062 L122.197266,23.84375 C121.689451,24.6015663 121.011723,25.189451 120.164062,25.6074219 C119.316402,26.0253927 118.36524,26.234375 117.310547,26.234375 L117.310547,26.234375 Z M116.970703,15.3710938 C116.189449,15.3710938 115.558596,15.6445285 115.078125,16.1914062 C114.597654,16.738284 114.291016,17.4999951 114.158203,18.4765625 L119.583984,18.4765625 L119.583984,18.265625 C119.521484,17.3124952 119.26758,16.5917993 118.822266,16.1035156 C118.376951,15.6152319 117.75977,15.3710938 116.970703,15.3710938 L116.970703,15.3710938 Z" id="Tifanee" fill="#4A4A4A"></path>
                <circle id="Oval" stroke="#14A09F" stroke-width="4" cx="17" cy="17" r="17"></circle>
            </g>
        </g>
    </g>
</svg>